<svg xmlns="http://www.w3.org/2000/svg" xmlns:xlink="http://www.w3.org/1999/xlink" width="1000" zoomAndPan="magnify" viewBox="0 0 750 749.999995" height="1000" preserveAspectRatio="xMidYMid meet" version="1.0"><defs><clipPath id="81eac49566"><path d="M 7.625 218.105469 L 742.375 218.105469 L 742.375 750 L 7.625 750 Z M 7.625 218.105469 " clip-rule="nonzero"/></clipPath><clipPath id="6ccecfcab5"><path d="M 375 218.105469 C 172.105469 218.105469 7.625 382.585938 7.625 585.480469 C 7.625 788.375 172.105469 952.855469 375 952.855469 C 577.894531 952.855469 742.375 788.375 742.375 585.480469 C 742.375 382.585938 577.894531 218.105469 375 218.105469 Z M 375 218.105469 " clip-rule="nonzero"/></clipPath><clipPath id="85e1b35fb9"><path d="M 0.625 0.105469 L 735.375 0.105469 L 735.375 532 L 0.625 532 Z M 0.625 0.105469 " clip-rule="nonzero"/></clipPath><clipPath id="5d7cf4cfb8"><path d="M 368 0.105469 C 165.105469 0.105469 0.625 164.585938 0.625 367.480469 C 0.625 570.375 165.105469 734.855469 368 734.855469 C 570.894531 734.855469 735.375 570.375 735.375 367.480469 C 735.375 164.585938 570.894531 0.105469 368 0.105469 Z M 368 0.105469 " clip-rule="nonzero"/></clipPath><clipPath id="88b39d2428"><rect x="0" width="736" y="0" height="532"/></clipPath></defs><g clip-path="url(#81eac49566)"><g clip-path="url(#6ccecfcab5)"><g transform="matrix(1, 0, 0, 1, 7, 218)"><g clip-path="url(#88b39d2428)"><g clip-path="url(#85e1b35fb9)"><g clip-path="url(#5d7cf4cfb8)"><path fill="#ffffff" d="M 0.625 0.105469 L 735.375 0.105469 L 735.375 734.855469 L 0.625 734.855469 Z M 0.625 0.105469 " fill-opacity="1" fill-rule="nonzero"/></g></g></g></g></g></g></svg>