<svg width="2501" height="1125" viewBox="0 0 2501 1125" fill="none" xmlns="http://www.w3.org/2000/svg">
<path d="M1921.74 0H1700.48V1123.53L1925.84 1119.41V629.219L1934.03 596.265L1946.32 569.489L1965.79 542.714L1988.32 521.088L2015.98 502.551L2047.74 487.104L2078.47 478.865H2115.34H2141.98L2172.71 485.044L2200.36 496.372L2223.92 512.849L2245.44 530.356L2260.8 555.072L2270.02 579.788L2276.17 609.652V1121.47H2500.5V556.102L2497.43 526.237L2489.23 494.313L2466.7 433.553L2448.26 402.659L2425.72 373.824L2397.04 346.019L2362.21 322.333L2323.29 303.796L2282.31 290.409L2238.27 283.2L2195.24 281.14L2152.22 283.2L2110.22 290.409L2069.25 302.767L2035.44 320.273L2003.69 337.78L1970.91 363.526L1943.25 393.391L1921.74 430.464V0Z" fill="#051A2F"/>
<path d="M1200.66 298.957V96.9368H1422.26V296.896H1608.97V477.272H1422.26V863.791L1429.44 887.497L1434.57 900.897L1442.78 911.204L1455.09 922.542L1471.5 930.787L1484.84 935.941L1504.33 938.002H1531L1555.63 932.849L1600.76 913.265V933.88L1604.87 954.494L1614.1 997.784L1625.39 1039.01L1639.75 1078.18L1555.63 1111.16L1510.49 1120.44L1460.22 1123.53L1429.44 1122.5L1400.71 1118.38L1344.29 1102.92L1297.1 1081.27L1255.04 1041.07L1234.52 1010.15L1218.1 976.139L1208.87 941.095L1205.79 923.572L1203.74 914.296L1201.69 905.019L1199.64 477.272H1074.48V296.896L1200.66 298.957Z" fill="#051A2F"/>
<path d="M247.093 1121.61L4.10113 1124.7L0 1122.64L41.0113 1015.47L87.149 909.323L120.983 861.919L152.767 824.821L173.273 803.18L198.905 779.478L221.461 760.929L245.042 746.502L290.155 722.8L334.242 705.282L376.279 692.915L424.467 683.641L442.922 682.61H466.503H489.06L515.717 686.732L562.88 694.977L610.043 708.373L657.206 728.983L698.217 753.716L733.077 784.631L764.86 815.546L820.226 892.835L577.234 231.247L433.694 631.085L394.734 634.176L354.748 641.39L316.812 653.756L280.927 668.183L241.967 686.732L205.056 710.434L173.273 734.136L142.514 760.929L448.048 21.0225H721.799L1158.57 1121.61H1156.52H903.274L823.302 906.231H331.166L247.093 1121.61Z" fill="#051A2F"/>
</svg>
